# Blender v2.82 (sub 7) OBJ File: ''
# www.blender.org
o Cylinder
v 0.000000 -1.000000 -1.000000
v 0.000000 1.000000 -1.000000
v 0.125333 -1.000000 -0.992115
v 0.125333 1.000000 -0.992115
v 0.248690 -1.000000 -0.968583
v 0.248690 1.000000 -0.968583
v 0.368125 -1.000000 -0.929776
v 0.368125 1.000000 -0.929776
v 0.481754 -1.000000 -0.876307
v 0.481754 1.000000 -0.876307
v 0.587785 -1.000000 -0.809017
v 0.587785 1.000000 -0.809017
v 0.684547 -1.000000 -0.728969
v 0.684547 1.000000 -0.728969
v 0.770513 -1.000000 -0.637424
v 0.770513 1.000000 -0.637424
v 0.844328 -1.000000 -0.535827
v 0.844328 1.000000 -0.535827
v 0.904827 -1.000000 -0.425779
v 0.904827 1.000000 -0.425779
v 0.951057 -1.000000 -0.309017
v 0.951057 1.000000 -0.309017
v 0.982287 -1.000000 -0.187381
v 0.982287 1.000000 -0.187381
v 0.998027 -1.000000 -0.062790
v 0.998027 1.000000 -0.062790
v 0.998027 -1.000000 0.062791
v 0.998027 1.000000 0.062791
v 0.982287 -1.000000 0.187382
v 0.982287 1.000000 0.187382
v 0.951056 -1.000000 0.309017
v 0.951056 1.000000 0.309017
v 0.904827 -1.000000 0.425780
v 0.904827 1.000000 0.425780
v 0.844328 -1.000000 0.535827
v 0.844328 1.000000 0.535827
v 0.770513 -1.000000 0.637424
v 0.770513 1.000000 0.637424
v 0.684547 -1.000000 0.728969
v 0.684547 1.000000 0.728969
v 0.587785 -1.000000 0.809017
v 0.587785 1.000000 0.809017
v 0.481753 -1.000000 0.876307
v 0.481753 1.000000 0.876307
v 0.368124 -1.000000 0.929777
v 0.368124 1.000000 0.929777
v 0.248689 -1.000000 0.968583
v 0.248689 1.000000 0.968583
v 0.125332 -1.000000 0.992115
v 0.125332 1.000000 0.992115
v -0.000001 -1.000000 1.000000
v -0.000001 1.000000 1.000000
v -0.125334 -1.000000 0.992115
v -0.125334 1.000000 0.992115
v -0.248691 -1.000000 0.968583
v -0.248691 1.000000 0.968583
v -0.368125 -1.000000 0.929776
v -0.368125 1.000000 0.929776
v -0.481755 -1.000000 0.876306
v -0.481755 1.000000 0.876306
v -0.587786 -1.000000 0.809016
v -0.587786 1.000000 0.809016
v -0.684548 -1.000000 0.728968
v -0.684548 1.000000 0.728968
v -0.770514 -1.000000 0.637423
v -0.770514 1.000000 0.637423
v -0.844329 -1.000000 0.535826
v -0.844329 1.000000 0.535826
v -0.904828 -1.000000 0.425778
v -0.904828 1.000000 0.425778
v -0.951057 -1.000000 0.309016
v -0.951057 1.000000 0.309016
v -0.982288 -1.000000 0.187380
v -0.982288 1.000000 0.187380
v -0.998027 -1.000000 0.062789
v -0.998027 1.000000 0.062789
v -0.998027 -1.000000 -0.062792
v -0.998027 1.000000 -0.062792
v -0.982287 -1.000000 -0.187383
v -0.982287 1.000000 -0.187383
v -0.951056 -1.000000 -0.309018
v -0.951056 1.000000 -0.309018
v -0.904826 -1.000000 -0.425781
v -0.904826 1.000000 -0.425781
v -0.844327 -1.000000 -0.535828
v -0.844327 1.000000 -0.535828
v -0.770512 -1.000000 -0.637425
v -0.770512 1.000000 -0.637425
v -0.684546 -1.000000 -0.728970
v -0.684546 1.000000 -0.728970
v -0.587784 -1.000000 -0.809018
v -0.587784 1.000000 -0.809018
v -0.481752 -1.000000 -0.876308
v -0.481752 1.000000 -0.876308
v -0.368123 -1.000000 -0.929777
v -0.368123 1.000000 -0.929777
v -0.248688 -1.000000 -0.968584
v -0.248688 1.000000 -0.968584
v -0.125331 -1.000000 -0.992115
v -0.125331 1.000000 -0.992115
vn -0.1253 0.0000 0.9921
vn 0.0000 0.0000 1.0000
vn -0.2487 0.0000 0.9686
vn -0.3681 0.0000 0.9297
vn -0.4817 0.0000 0.8763
vn -0.5878 0.0000 0.8090
vn -0.6845 0.0000 0.7290
vn -0.7705 0.0000 0.6374
vn -0.8443 0.0000 0.5358
vn -0.9048 0.0000 0.4258
vn -0.9510 0.0000 0.3090
vn -0.9823 0.0000 0.1874
vn -0.9980 0.0000 0.0628
vn -0.9980 0.0000 -0.0628
vn -0.9823 0.0000 -0.1874
vn -0.9510 0.0000 -0.3090
vn -0.9048 0.0000 -0.4258
vn -0.8443 0.0000 -0.5358
vn -0.7705 0.0000 -0.6374
vn -0.6845 0.0000 -0.7290
vn -0.5878 0.0000 -0.8090
vn -0.4817 0.0000 -0.8763
vn -0.3681 0.0000 -0.9297
vn -0.2487 0.0000 -0.9686
vn -0.1253 0.0000 -0.9921
vn 0.0000 0.0000 -1.0000
vn 0.1253 0.0000 -0.9921
vn 0.2487 0.0000 -0.9686
vn 0.3681 0.0000 -0.9297
vn 0.4817 0.0000 -0.8763
vn 0.5878 0.0000 -0.8090
vn 0.6845 0.0000 -0.7290
vn 0.7705 0.0000 -0.6374
vn 0.8443 0.0000 -0.5358
vn 0.9048 0.0000 -0.4258
vn 0.9510 0.0000 -0.3090
vn 0.9823 0.0000 -0.1874
vn 0.9980 0.0000 -0.0628
vn 0.9980 0.0000 0.0628
vn 0.9823 0.0000 0.1874
vn 0.9510 0.0000 0.3090
vn 0.9048 0.0000 0.4258
vn 0.8443 0.0000 0.5358
vn 0.7705 0.0000 0.6374
vn 0.6845 0.0000 0.7290
vn 0.5878 0.0000 0.8090
vn 0.4817 0.0000 0.8763
vn 0.3681 0.0000 0.9298
vn 0.2487 0.0000 0.9686
vn 0.1253 0.0000 0.9921
s 1
f 3//1 2//2 1//2
f 5//3 4//1 3//1
f 7//4 6//3 5//3
f 9//5 8//4 7//4
f 11//6 10//5 9//5
f 13//7 12//6 11//6
f 15//8 14//7 13//7
f 17//9 16//8 15//8
f 19//10 18//9 17//9
f 21//11 20//10 19//10
f 23//12 22//11 21//11
f 25//13 24//12 23//12
f 27//14 26//13 25//13
f 29//15 28//14 27//14
f 31//16 30//15 29//15
f 33//17 32//16 31//16
f 35//18 34//17 33//17
f 37//19 36//18 35//18
f 39//20 38//19 37//19
f 41//21 40//20 39//20
f 43//22 42//21 41//21
f 45//23 44//22 43//22
f 47//24 46//23 45//23
f 49//25 48//24 47//24
f 51//26 50//25 49//25
f 53//27 52//26 51//26
f 55//28 54//27 53//27
f 57//29 56//28 55//28
f 59//30 58//29 57//29
f 61//31 60//30 59//30
f 63//32 62//31 61//31
f 65//33 64//32 63//32
f 67//34 66//33 65//33
f 69//35 68//34 67//34
f 71//36 70//35 69//35
f 73//37 72//36 71//36
f 75//38 74//37 73//37
f 77//39 76//38 75//38
f 79//40 78//39 77//39
f 81//41 80//40 79//40
f 83//42 82//41 81//41
f 85//43 84//42 83//42
f 87//44 86//43 85//43
f 89//45 88//44 87//44
f 91//46 90//45 89//45
f 93//47 92//46 91//46
f 95//48 94//47 93//47
f 97//49 96//48 95//48
f 99//50 98//49 97//49
f 1//2 100//50 99//50
f 3//1 4//1 2//2
f 5//3 6//3 4//1
f 7//4 8//4 6//3
f 9//5 10//5 8//4
f 11//6 12//6 10//5
f 13//7 14//7 12//6
f 15//8 16//8 14//7
f 17//9 18//9 16//8
f 19//10 20//10 18//9
f 21//11 22//11 20//10
f 23//12 24//12 22//11
f 25//13 26//13 24//12
f 27//14 28//14 26//13
f 29//15 30//15 28//14
f 31//16 32//16 30//15
f 33//17 34//17 32//16
f 35//18 36//18 34//17
f 37//19 38//19 36//18
f 39//20 40//20 38//19
f 41//21 42//21 40//20
f 43//22 44//22 42//21
f 45//23 46//23 44//22
f 47//24 48//24 46//23
f 49//25 50//25 48//24
f 51//26 52//26 50//25
f 53//27 54//27 52//26
f 55//28 56//28 54//27
f 57//29 58//29 56//28
f 59//30 60//30 58//29
f 61//31 62//31 60//30
f 63//32 64//32 62//31
f 65//33 66//33 64//32
f 67//34 68//34 66//33
f 69//35 70//35 68//34
f 71//36 72//36 70//35
f 73//37 74//37 72//36
f 75//38 76//38 74//37
f 77//39 78//39 76//38
f 79//40 80//40 78//39
f 81//41 82//41 80//40
f 83//42 84//42 82//41
f 85//43 86//43 84//42
f 87//44 88//44 86//43
f 89//45 90//45 88//44
f 91//46 92//46 90//45
f 93//47 94//47 92//46
f 95//48 96//48 94//47
f 97//49 98//49 96//48
f 99//50 100//50 98//49
f 1//2 2//2 100//50
